<svg xmlns="http://www.w3.org/2000/svg" viewBox="0 0 100 100"><circle cx="50" cy="50" r="48" fill="#0A0A0A"/><circle cx="50" cy="50" r="44" fill="none" stroke="#0D5645" stroke-width="3"/><g transform="translate(52 46) scale(0.3) translate(-81 -50)"><g transform="translate(0 100) skewX(-12) translate(0 -100)"><polygon points="0,0 24,0 54,50.0 24,100 0,100 30,50.0" fill="#FFFFFF"/><polygon points="33,0 57,0 87,50.0 57,100 33,100 63,50.0" fill="#FFFFFF"/><polygon points="66,0 90,0 120,50.0 90,100 66,100 96,50.0" fill="#0D5645"/></g></g><path fill="#FFFFFF" transform="translate(45.07 80.00) scale(0.01017 -0.01017)" d="M84 0V688H305V0Z"/><path fill="#FFFFFF" transform="translate(48.02 80.00) scale(0.01017 -0.01017)" d="M84 0V688H305V0Z"/><path fill="#FFFFFF" transform="translate(50.97 80.00) scale(0.01017 -0.01017)" d="M84 0V688H305V0Z"/></svg>