<svg xmlns="http://www.w3.org/2000/svg" viewBox="0 0 512 512"><g transform="translate(256.0 256.0) skewX(-8) translate(-256.0 -256.0)"><rect width="512" height="512" rx="56.32" fill="#C9A24B"/></g><g fill="#06281F" transform="translate(97.28 333.79) scale(1.55586) translate(0 -100)"><path transform="translate(0.00 100.00) scale(0.14535 -0.14535)" d="M722 519Q722 392 607 359V355Q738 325 738 183Q738 129 711.5 87.5Q685 46 639.0 23.0Q593 0 538 0H74V688H532Q584 688 627.5 666.5Q671 645 696.5 606.0Q722 567 722 519ZM295 420H447Q469 420 483.5 435.5Q498 451 498 474V484Q498 506 483.0 521.5Q468 537 447 537H295ZM295 160H463Q485 160 499.5 175.5Q514 191 514 214V224Q514 247 499.5 262.5Q485 278 463 278H295Z"/><path transform="translate(107.08 100.00) scale(0.14535 -0.14535)" d="M74 688H630V523H295V405H583V247H295V0H74Z"/></g></svg>